<svg width="211" height="92" viewBox="0 0 211 92" fill="none" xmlns="http://www.w3.org/2000/svg">
<path d="M30.3568 31.317C30.4753 31.1099 30.6566 30.9458 30.8744 30.8484C31.0923 30.7511 31.3355 30.7256 31.5688 30.7755L31.7593 30.816C32.5529 30.986 33.3021 31.3203 33.9587 31.7974C34.6152 32.2745 35.1646 32.8838 35.5714 33.5861C35.9782 34.2883 36.2334 35.068 36.3207 35.8749C36.4079 36.6818 36.3252 37.498 36.0778 38.271L35.1238 41.25H36.8293C40.7968 41.25 43.5988 45.1365 42.3433 48.9L40.0048 55.917C39.6812 56.8875 39.0605 57.7317 38.2305 58.3299C37.4005 58.928 36.4034 59.25 35.3803 59.25H27.4468C25.9031 59.2503 24.4059 58.7214 23.2048 57.7515C22.9917 58.2 22.6558 58.5789 22.236 58.8441C21.8163 59.1094 21.3299 59.2501 20.8333 59.25H17.4583C16.7621 59.25 16.0944 58.9734 15.6022 58.4812C15.1099 57.9889 14.8333 57.3212 14.8333 56.625V43.875C14.8333 42.426 16.0093 41.25 17.4583 41.25H24.4633C24.5294 41.25 24.5943 41.2325 24.6515 41.1993C24.7087 41.1661 24.756 41.1184 24.7888 41.061L30.3568 31.317ZM23.4583 54.99L24.4828 55.887C25.3034 56.6048 26.3566 57.0003 27.4468 57H35.3803C35.9313 56.9999 36.4682 56.8264 36.9151 56.5042C37.362 56.1819 37.6962 55.7272 37.8703 55.2045L40.2088 48.189C40.3873 47.6535 40.436 47.0833 40.3509 46.5252C40.2657 45.9672 40.0492 45.4374 39.7192 44.9795C39.3892 44.5216 38.955 44.1487 38.4526 43.8914C37.9502 43.6342 37.3938 43.5 36.8293 43.5H33.5833C33.4062 43.5 33.2315 43.4581 33.0736 43.3778C32.9157 43.2975 32.779 43.181 32.6746 43.0379C32.5703 42.8948 32.5012 42.729 32.4729 42.5541C32.4447 42.3793 32.4582 42.2002 32.5123 42.0315L33.9343 37.5855C34.2087 36.7289 34.1489 35.8001 33.7669 34.9857C33.3849 34.1713 32.709 33.5316 31.8748 33.195L26.7418 42.177C26.5123 42.5788 26.1807 42.9127 25.7806 43.1451C25.3804 43.3774 24.926 43.4999 24.4633 43.5H23.4583V54.99ZM21.2083 43.5H17.4583C17.3589 43.5 17.2635 43.5395 17.1931 43.6098C17.1228 43.6802 17.0833 43.7755 17.0833 43.875V56.625C17.0833 56.832 17.2513 57 17.4583 57H20.8333C20.9328 57 21.0282 56.9605 21.0985 56.8902C21.1688 56.8198 21.2083 56.7245 21.2083 56.625V43.5Z" fill="white"/>
<g clip-path="url(#clip0_61_544)">
<path d="M58.1333 49.232L58.1513 45.884L69.4373 35.768C70.3493 34.964 70.9673 34.196 71.2913 33.464C71.6273 32.732 71.7953 32 71.7953 31.268C71.7953 30.344 71.5913 29.516 71.1833 28.784C70.7753 28.04 70.2113 27.452 69.4913 27.02C68.7713 26.588 67.9433 26.372 67.0073 26.372C66.0473 26.372 65.1893 26.6 64.4333 27.056C63.6893 27.5 63.1073 28.094 62.6873 28.838C62.2673 29.582 62.0633 30.386 62.0753 31.25H58.2233C58.2233 29.57 58.6013 28.1 59.3573 26.84C60.1253 25.568 61.1753 24.578 62.5073 23.87C63.8393 23.15 65.3633 22.79 67.0793 22.79C68.7113 22.79 70.1753 23.162 71.4713 23.906C72.7673 24.638 73.7873 25.646 74.5313 26.93C75.2873 28.214 75.6653 29.678 75.6653 31.322C75.6653 32.51 75.5093 33.518 75.1973 34.346C74.8853 35.174 74.4173 35.942 73.7933 36.65C73.1693 37.358 72.3893 38.126 71.4533 38.954L62.7413 46.73L62.3273 45.65H75.6653V49.232H58.1333ZM89.0182 49.79C87.2542 49.79 85.6942 49.406 84.3382 48.638C82.9822 47.858 81.9142 46.79 81.1342 45.434C80.3662 44.078 79.9822 42.518 79.9822 40.754V31.826C79.9822 30.062 80.3662 28.502 81.1342 27.146C81.9142 25.79 82.9822 24.728 84.3382 23.96C85.6942 23.18 87.2542 22.79 89.0182 22.79C90.7822 22.79 92.3422 23.18 93.6982 23.96C95.0542 24.728 96.1162 25.79 96.8842 27.146C97.6642 28.502 98.0542 30.062 98.0542 31.826V40.754C98.0542 42.518 97.6642 44.078 96.8842 45.434C96.1162 46.79 95.0542 47.858 93.6982 48.638C92.3422 49.406 90.7822 49.79 89.0182 49.79ZM89.0182 46.19C89.9782 46.19 90.8482 45.962 91.6282 45.506C92.4202 45.038 93.0502 44.414 93.5182 43.634C93.9862 42.842 94.2202 41.96 94.2202 40.988V31.556C94.2202 30.596 93.9862 29.726 93.5182 28.946C93.0502 28.154 92.4202 27.53 91.6282 27.074C90.8482 26.606 89.9782 26.372 89.0182 26.372C88.0582 26.372 87.1822 26.606 86.3902 27.074C85.6102 27.53 84.9862 28.154 84.5182 28.946C84.0502 29.726 83.8162 30.596 83.8162 31.556V40.988C83.8162 41.96 84.0502 42.842 84.5182 43.634C84.9862 44.414 85.6102 45.038 86.3902 45.506C87.1822 45.962 88.0582 46.19 89.0182 46.19ZM103.08 49.25V23.33H106.842V35.426L117.696 23.33H122.376L110.91 35.984L123.222 49.25H118.398L106.842 36.866V49.25H103.08Z" fill="white"/>
<path d="M56.6133 76.25L60.0853 66.17H61.4503L64.9223 76.25H63.8513L60.5543 66.744H60.9603L57.6843 76.25H56.6133ZM58.1603 73.807V72.841H63.3683V73.807H58.1603ZM69.3224 76.46C68.5617 76.46 67.9177 76.2897 67.3904 75.949C66.863 75.6083 66.4617 75.1393 66.1864 74.542C65.9157 73.94 65.7757 73.2493 65.7664 72.47C65.7757 71.6767 65.9204 70.9813 66.2004 70.384C66.4804 69.782 66.884 69.3153 67.4114 68.984C67.9387 68.648 68.578 68.48 69.3294 68.48C70.0947 68.48 70.7597 68.6667 71.3244 69.04C71.8937 69.4133 72.2834 69.9243 72.4934 70.573L71.4854 70.895C71.308 70.4423 71.0257 70.0923 70.6384 69.845C70.2557 69.593 69.817 69.467 69.3224 69.467C68.767 69.467 68.3074 69.5953 67.9434 69.852C67.5794 70.104 67.3087 70.4563 67.1314 70.909C66.954 71.3617 66.863 71.882 66.8584 72.47C66.8677 73.3753 67.0777 74.1033 67.4884 74.654C67.899 75.2 68.5104 75.473 69.3224 75.473C69.8357 75.473 70.272 75.3563 70.6314 75.123C70.9954 74.885 71.2707 74.5397 71.4574 74.087L72.4934 74.395C72.2134 75.067 71.8027 75.5803 71.2614 75.935C70.72 76.285 70.0737 76.46 69.3224 76.46ZM78.0543 76.25C77.6296 76.3387 77.2096 76.3737 76.7943 76.355C76.3836 76.3363 76.015 76.2477 75.6883 76.089C75.3663 75.9303 75.1213 75.683 74.9533 75.347C74.818 75.067 74.7433 74.7847 74.7293 74.5C74.72 74.2107 74.7153 73.8817 74.7153 73.513V66.59H75.7373V73.471C75.7373 73.7883 75.7396 74.0543 75.7443 74.269C75.7536 74.479 75.8026 74.6657 75.8913 74.829C76.0593 75.1417 76.3253 75.3283 76.6893 75.389C77.058 75.4497 77.513 75.4357 78.0543 75.347V76.25ZM73.0983 69.572V68.69H78.0543V69.572H73.0983ZM79.6838 67.255V66.1H80.7128V67.255H79.6838ZM79.6838 76.25V68.69H80.7128V76.25H79.6838ZM84.8554 76.25L82.1114 68.69H83.1544L85.3874 74.906L87.6064 68.69H88.6634L85.9194 76.25H84.8554ZM92.8463 76.46C92.109 76.46 91.4696 76.2967 90.9283 75.97C90.3916 75.6433 89.974 75.1837 89.6753 74.591C89.3766 73.9983 89.2273 73.303 89.2273 72.505C89.2273 71.679 89.3743 70.965 89.6683 70.363C89.9623 69.761 90.3753 69.2967 90.9073 68.97C91.444 68.6433 92.0763 68.48 92.8043 68.48C93.551 68.48 94.188 68.6527 94.7153 68.998C95.2426 69.3387 95.6416 69.8287 95.9123 70.468C96.183 71.1073 96.3066 71.8703 96.2833 72.757H95.2333V72.393C95.2146 71.413 95.0023 70.6733 94.5963 70.174C94.195 69.6747 93.607 69.425 92.8323 69.425C92.0203 69.425 91.3973 69.6887 90.9633 70.216C90.534 70.7433 90.3193 71.4947 90.3193 72.47C90.3193 73.422 90.534 74.1617 90.9633 74.689C91.3973 75.2117 92.011 75.473 92.8043 75.473C93.3456 75.473 93.817 75.3493 94.2183 75.102C94.6243 74.85 94.944 74.4883 95.1773 74.017L96.1363 74.388C95.8376 75.046 95.3966 75.557 94.8133 75.921C94.2346 76.2803 93.579 76.46 92.8463 76.46ZM89.9553 72.757V71.896H95.7303V72.757H89.9553ZM103.53 76.439C103.078 76.439 102.681 76.369 102.34 76.229C102.004 76.089 101.717 75.9 101.479 75.662C101.246 75.424 101.057 75.1533 100.912 74.85C100.768 74.542 100.663 74.2177 100.597 73.877C100.532 73.5317 100.499 73.1887 100.499 72.848V68.69H101.535V72.547C101.535 72.9623 101.575 73.3473 101.654 73.702C101.734 74.0567 101.86 74.367 102.032 74.633C102.21 74.8943 102.436 75.0973 102.711 75.242C102.991 75.3867 103.33 75.459 103.726 75.459C104.09 75.459 104.41 75.396 104.685 75.27C104.965 75.144 105.199 74.9643 105.385 74.731C105.577 74.493 105.721 74.206 105.819 73.87C105.917 73.5293 105.966 73.1467 105.966 72.722L106.694 72.883C106.694 73.6577 106.559 74.3087 106.288 74.836C106.018 75.3633 105.644 75.7623 105.168 76.033C104.692 76.3037 104.146 76.439 103.53 76.439ZM106.071 76.25V74.388H105.966V68.69H106.995V76.25H106.071ZM111.773 76.453C110.886 76.453 110.156 76.2617 109.582 75.879C109.013 75.4963 108.663 74.9643 108.532 74.283L109.582 74.108C109.694 74.5373 109.948 74.8803 110.345 75.137C110.746 75.389 111.241 75.515 111.829 75.515C112.403 75.515 112.856 75.396 113.187 75.158C113.518 74.9153 113.684 74.5863 113.684 74.171C113.684 73.9377 113.63 73.7487 113.523 73.604C113.42 73.4547 113.208 73.317 112.886 73.191C112.564 73.065 112.083 72.9157 111.444 72.743C110.758 72.5563 110.221 72.3697 109.834 72.183C109.447 71.9963 109.171 71.7817 109.008 71.539C108.845 71.2917 108.763 70.9907 108.763 70.636C108.763 70.2067 108.884 69.831 109.127 69.509C109.37 69.1823 109.706 68.9303 110.135 68.753C110.564 68.571 111.064 68.48 111.633 68.48C112.202 68.48 112.711 68.5733 113.159 68.76C113.612 68.942 113.976 69.1987 114.251 69.53C114.526 69.8613 114.69 70.2463 114.741 70.685L113.691 70.874C113.621 70.4307 113.399 70.0807 113.026 69.824C112.657 69.5627 112.188 69.4273 111.619 69.418C111.082 69.404 110.646 69.5067 110.31 69.726C109.974 69.9407 109.806 70.2277 109.806 70.587C109.806 70.7877 109.867 70.9603 109.988 71.105C110.109 71.245 110.329 71.378 110.646 71.504C110.968 71.63 111.425 71.7677 112.018 71.917C112.713 72.0943 113.259 72.281 113.656 72.477C114.053 72.673 114.335 72.904 114.503 73.17C114.671 73.436 114.755 73.765 114.755 74.157C114.755 74.871 114.489 75.4333 113.957 75.844C113.43 76.25 112.702 76.453 111.773 76.453ZM119.506 76.46C118.769 76.46 118.13 76.2967 117.588 75.97C117.052 75.6433 116.634 75.1837 116.335 74.591C116.037 73.9983 115.887 73.303 115.887 72.505C115.887 71.679 116.034 70.965 116.328 70.363C116.622 69.761 117.035 69.2967 117.567 68.97C118.104 68.6433 118.736 68.48 119.464 68.48C120.211 68.48 120.848 68.6527 121.375 68.998C121.903 69.3387 122.302 69.8287 122.572 70.468C122.843 71.1073 122.967 71.8703 122.943 72.757H121.893V72.393C121.875 71.413 121.662 70.6733 121.256 70.174C120.855 69.6747 120.267 69.425 119.492 69.425C118.68 69.425 118.057 69.6887 117.623 70.216C117.194 70.7433 116.979 71.4947 116.979 72.47C116.979 73.422 117.194 74.1617 117.623 74.689C118.057 75.2117 118.671 75.473 119.464 75.473C120.006 75.473 120.477 75.3493 120.878 75.102C121.284 74.85 121.604 74.4883 121.837 74.017L122.796 74.388C122.498 75.046 122.057 75.557 121.473 75.921C120.895 76.2803 120.239 76.46 119.506 76.46ZM116.615 72.757V71.896H122.39V72.757H116.615ZM124.497 76.25V68.69H125.421V70.51L125.239 70.272C125.323 70.048 125.433 69.8427 125.568 69.656C125.703 69.4647 125.85 69.3083 126.009 69.187C126.205 69.0143 126.434 68.8837 126.695 68.795C126.956 68.7017 127.22 68.648 127.486 68.634C127.752 68.6153 127.995 68.634 128.214 68.69V69.656C127.939 69.586 127.638 69.5697 127.311 69.607C126.984 69.6443 126.683 69.775 126.408 69.999C126.156 70.195 125.967 70.4307 125.841 70.706C125.715 70.9767 125.631 71.266 125.589 71.574C125.547 71.8773 125.526 72.1783 125.526 72.477V76.25H124.497ZM132.089 76.453C131.203 76.453 130.472 76.2617 129.898 75.879C129.329 75.4963 128.979 74.9643 128.848 74.283L129.898 74.108C130.01 74.5373 130.265 74.8803 130.661 75.137C131.063 75.389 131.557 75.515 132.145 75.515C132.719 75.515 133.172 75.396 133.503 75.158C133.835 74.9153 134 74.5863 134 74.171C134 73.9377 133.947 73.7487 133.839 73.604C133.737 73.4547 133.524 73.317 133.202 73.191C132.88 73.065 132.4 72.9157 131.76 72.743C131.074 72.5563 130.538 72.3697 130.15 72.183C129.763 71.9963 129.488 71.7817 129.324 71.539C129.161 71.2917 129.079 70.9907 129.079 70.636C129.079 70.2067 129.201 69.831 129.443 69.509C129.686 69.1823 130.022 68.9303 130.451 68.753C130.881 68.571 131.38 68.48 131.949 68.48C132.519 68.48 133.027 68.5733 133.475 68.76C133.928 68.942 134.292 69.1987 134.567 69.53C134.843 69.8613 135.006 70.2463 135.057 70.685L134.007 70.874C133.937 70.4307 133.716 70.0807 133.342 69.824C132.974 69.5627 132.505 69.4273 131.935 69.418C131.399 69.404 130.962 69.5067 130.626 69.726C130.29 69.9407 130.122 70.2277 130.122 70.587C130.122 70.7877 130.183 70.9603 130.304 71.105C130.426 71.245 130.645 71.378 130.962 71.504C131.284 71.63 131.742 71.7677 132.334 71.917C133.03 72.0943 133.576 72.281 133.972 72.477C134.369 72.673 134.651 72.904 134.819 73.17C134.987 73.436 135.071 73.765 135.071 74.157C135.071 74.871 134.805 75.4333 134.273 75.844C133.746 76.25 133.018 76.453 132.089 76.453Z" fill="white"/>
</g>
<defs>
<clipPath id="clip0_61_544">
<rect width="80" height="71" fill="white" transform="translate(56.3333 10.25)"/>
</clipPath>
</defs>
</svg>
