<svg width="45" height="46" viewBox="0 0 45 46" fill="none" xmlns="http://www.w3.org/2000/svg">
<rect y="0.75" width="45" height="45" rx="22.5" fill="black"/>
<path d="M21.0858 19.7569C20.9851 19.7604 20.8848 19.7436 20.7907 19.7076C20.6967 19.6715 20.6109 19.6169 20.5384 19.5469C20.466 19.477 20.4083 19.3931 20.369 19.3004C20.3296 19.2077 20.3093 19.108 20.3093 19.0073C20.3093 18.9066 20.3296 18.8069 20.369 18.7142C20.4083 18.6215 20.466 18.5377 20.5384 18.4677C20.6109 18.3978 20.6967 18.3431 20.7907 18.3071C20.8848 18.271 20.9851 18.2542 21.0858 18.2578L26.7426 18.2578C26.9414 18.2579 27.132 18.3369 27.2725 18.4775C27.413 18.618 27.492 18.8086 27.4922 19.0073L27.4922 24.6642C27.4957 24.7648 27.479 24.8652 27.4429 24.9592C27.4068 25.0532 27.3522 25.1391 27.2822 25.2115C27.2123 25.284 27.1285 25.3416 27.0357 25.381C26.943 25.4203 26.8434 25.4406 26.7426 25.4406C26.6419 25.4406 26.5422 25.4203 26.4495 25.381C26.3568 25.3416 26.273 25.284 26.203 25.2115C26.1331 25.1391 26.0784 25.0532 26.0424 24.9592C26.0063 24.8652 25.9895 24.7648 25.9931 24.6642L25.9931 20.8175L19.1412 27.6694C19.0006 27.81 18.8098 27.889 18.6109 27.889C18.412 27.889 18.2212 27.81 18.0806 27.6694C17.9399 27.5287 17.8609 27.338 17.8609 27.139C17.8609 26.9401 17.9399 26.7494 18.0806 26.6087L24.9324 19.7569L21.0858 19.7569Z" fill="white"/>
</svg>
