<svg width="70" height="71" viewBox="0 0 70 71" fill="none" xmlns="http://www.w3.org/2000/svg">
<rect y="0.25" width="70" height="70" rx="10" fill="white"/>
<path d="M36.6406 30.6641C36.0547 30.1953 35.1758 30.3125 34.6484 30.8984C34.1797 31.4844 34.2383 32.3633 34.8828 32.8906C35.5273 33.418 35.9375 34.1797 35.9375 35C35.9375 35.8789 35.5273 36.6406 34.8828 37.168C34.2383 37.6953 34.1797 38.5742 34.6484 39.1602C34.9414 39.5117 35.3516 39.6875 35.7617 39.6875C36.0547 39.6875 36.4062 39.5703 36.6406 39.3945C37.9883 38.2812 38.75 36.6992 38.75 35C38.75 33.3594 37.9883 31.7773 36.6406 30.6641ZM40.2148 26.3281C39.5703 25.8008 38.6914 25.918 38.2227 26.5039C37.6953 27.0898 37.8125 27.9688 38.3984 28.4961C40.3906 30.1367 41.5039 32.4805 41.5039 35C41.5039 37.4609 40.3906 39.8633 38.3984 41.5039C37.8125 41.9727 37.6953 42.8516 38.2227 43.4375C38.5156 43.7891 38.8672 43.9648 39.2773 43.9648C39.6289 43.9648 39.9219 43.8477 40.2148 43.6719C42.8516 41.5625 44.375 38.3984 44.375 35C44.375 31.6016 42.8516 28.4961 40.2148 26.3281ZM43.7891 21.9922C43.2031 21.4648 42.3242 21.582 41.7969 22.168C41.3281 22.7539 41.3867 23.6328 41.9727 24.1602C45.2539 26.8555 47.1875 30.7812 47.1875 35C47.1875 39.1602 45.2539 43.1445 41.9727 45.8398C41.3867 46.3672 41.3281 47.2461 41.7969 47.832C42.0898 48.1836 42.5 48.3594 42.9102 48.3594C43.2031 48.3594 43.4961 48.2422 43.7891 48.0078C47.7148 44.8438 50 40.0977 50 35C50 29.8438 47.7148 25.2148 43.7891 21.9922ZM28.8477 30.2539C29.4336 30.3125 30.0781 29.9609 30.3125 29.375L32.2461 24.4531C32.5391 23.8086 32.2461 23.0469 31.7188 22.6953L27.7344 20.2344C27.207 19.8828 26.4453 20 25.9766 20.4688C17.9492 28.4961 17.9492 41.5625 25.9766 49.5898C26.4453 50.0586 27.207 50.1758 27.7344 49.8242L31.7188 47.3633C32.2461 47.0117 32.5391 46.25 32.2461 45.6055L30.3125 40.6836C30.0781 40.0977 29.4336 39.7461 28.8477 39.8047L25.7422 40.0977C24.5703 36.8164 24.5703 33.2422 25.7422 29.9609L28.8477 30.2539Z" fill="black"/>
</svg>
