<svg width="28" height="29" viewBox="0 0 28 29" fill="none" xmlns="http://www.w3.org/2000/svg">
<rect y="0.75" width="28" height="28" rx="14" fill="#D1D1D1"/>
<path d="M13.8125 9.125C13.9617 9.125 14.1048 9.18426 14.2102 9.28975C14.3157 9.39524 14.375 9.53832 14.375 9.6875V14H18.6875C18.8367 14 18.9798 14.0593 19.0852 14.1648C19.1907 14.2702 19.25 14.4133 19.25 14.5625C19.25 14.7117 19.1907 14.8548 19.0852 14.9602C18.9798 15.0657 18.8367 15.125 18.6875 15.125H14.375V19.4375C14.375 19.5867 14.3157 19.7298 14.2102 19.8352C14.1048 19.9407 13.9617 20 13.8125 20C13.6633 20 13.5202 19.9407 13.4148 19.8352C13.3093 19.7298 13.25 19.5867 13.25 19.4375V15.125H8.9375C8.78832 15.125 8.64524 15.0657 8.53975 14.9602C8.43426 14.8548 8.375 14.7117 8.375 14.5625C8.375 14.4133 8.43426 14.2702 8.53975 14.1648C8.64524 14.0593 8.78832 14 8.9375 14H13.25V9.6875C13.25 9.53832 13.3093 9.39524 13.4148 9.28975C13.5202 9.18426 13.6633 9.125 13.8125 9.125Z" fill="black"/>
</svg>
