<svg width="172" height="72" viewBox="0 0 172 72" fill="none" xmlns="http://www.w3.org/2000/svg">
<g clip-path="url(#clip0_61_565)">
<path d="M11.268 39.574C10.164 39.574 9.084 39.454 8.028 39.214C6.972 38.974 5.976 38.626 5.04 38.17C4.128 37.714 3.324 37.162 2.628 36.514L3.744 34.21C4.92 35.146 6.12 35.842 7.344 36.298C8.568 36.73 9.876 36.946 11.268 36.946C13.092 36.946 14.52 36.454 15.552 35.47C16.584 34.486 17.1 33.19 17.1 31.582C17.1 29.926 16.608 28.57 15.624 27.514C14.64 26.458 13.272 25.93 11.52 25.93C10.272 25.93 9.156 26.182 8.172 26.686C7.188 27.166 6.336 27.922 5.616 28.954H3.456V13.87H18.504V16.39H6.336V26.506H5.544C6.192 25.498 7.08 24.73 8.208 24.202C9.36 23.65 10.656 23.374 12.096 23.374C13.728 23.374 15.132 23.71 16.308 24.382C17.508 25.054 18.432 25.99 19.08 27.19C19.728 28.39 20.052 29.794 20.052 31.402C20.052 33.01 19.692 34.438 18.972 35.686C18.276 36.91 17.268 37.87 15.948 38.566C14.652 39.238 13.092 39.574 11.268 39.574ZM32.3859 39.574C29.5059 39.574 27.2979 38.458 25.7619 36.226C24.2259 33.994 23.4579 30.766 23.4579 26.542C23.4579 22.294 24.2259 19.066 25.7619 16.858C27.2979 14.65 29.5059 13.546 32.3859 13.546C35.2899 13.546 37.4979 14.65 39.0099 16.858C40.5459 19.066 41.3139 22.282 41.3139 26.506C41.3139 30.754 40.5459 33.994 39.0099 36.226C37.4739 38.458 35.2659 39.574 32.3859 39.574ZM32.3859 36.982C34.4019 36.982 35.9019 36.13 36.8859 34.426C37.8699 32.722 38.3619 30.082 38.3619 26.506C38.3619 22.906 37.8699 20.278 36.8859 18.622C35.9019 16.942 34.4019 16.102 32.3859 16.102C30.3939 16.102 28.8939 16.942 27.8859 18.622C26.9019 20.302 26.4099 22.93 26.4099 26.506C26.4099 30.082 26.9019 32.722 27.8859 34.426C28.8939 36.13 30.3939 36.982 32.3859 36.982ZM52.8199 37.882V30.034H45.0799V27.802H52.8199V20.134H55.1239V27.802H62.8639V30.034H55.1239V37.882H52.8199Z" fill="white"/>
<path d="M5.53 66.376C4.54067 66.376 3.70067 66.1707 3.01 65.76C2.31933 65.3493 1.78733 64.766 1.414 64.01C1.05 63.254 0.868 62.3533 0.868 61.308C0.868 60.2627 1.05 59.3667 1.414 58.62C1.78733 57.864 2.31933 57.2807 3.01 56.87C3.70067 56.4593 4.54067 56.254 5.53 56.254C6.23 56.254 6.85533 56.3613 7.406 56.576C7.95667 56.7907 8.43733 57.1033 8.848 57.514L8.414 58.438C7.966 58.046 7.52267 57.7613 7.084 57.584C6.64533 57.3973 6.132 57.304 5.544 57.304C4.41467 57.304 3.556 57.654 2.968 58.354C2.38 59.054 2.086 60.0387 2.086 61.308C2.086 62.5773 2.38 63.5667 2.968 64.276C3.556 64.976 4.41467 65.326 5.544 65.326C6.132 65.326 6.64533 65.2373 7.084 65.06C7.52267 64.8733 7.966 64.5793 8.414 64.178L8.848 65.116C8.43733 65.5173 7.95667 65.83 7.406 66.054C6.85533 66.2687 6.23 66.376 5.53 66.376ZM13.0681 66.376C12.3961 66.376 11.8081 66.2313 11.3041 65.942C10.8095 65.6433 10.4268 65.2233 10.1561 64.682C9.88546 64.1313 9.75013 63.4827 9.75013 62.736C9.75013 61.98 9.88546 61.3313 10.1561 60.79C10.4268 60.2487 10.8095 59.8333 11.3041 59.544C11.8081 59.2453 12.3961 59.096 13.0681 59.096C13.7495 59.096 14.3375 59.2453 14.8321 59.544C15.3361 59.8333 15.7235 60.2487 15.9941 60.79C16.2741 61.3313 16.4141 61.98 16.4141 62.736C16.4141 63.4827 16.2741 64.1313 15.9941 64.682C15.7235 65.2233 15.3361 65.6433 14.8321 65.942C14.3375 66.2313 13.7495 66.376 13.0681 66.376ZM13.0681 65.452C13.7401 65.452 14.2721 65.2233 14.6641 64.766C15.0561 64.2993 15.2521 63.6227 15.2521 62.736C15.2521 61.84 15.0515 61.1633 14.6501 60.706C14.2581 60.2393 13.7308 60.006 13.0681 60.006C12.4055 60.006 11.8781 60.2393 11.4861 60.706C11.0941 61.1633 10.8981 61.84 10.8981 62.736C10.8981 63.6227 11.0941 64.2993 11.4861 64.766C11.8781 65.2233 12.4055 65.452 13.0681 65.452ZM18.1822 66.25V60.846C18.1822 60.5847 18.1682 60.3187 18.1402 60.048C18.1215 59.768 18.0982 59.4927 18.0702 59.222H19.1622L19.3022 60.762H19.1342C19.3208 60.23 19.6148 59.8193 20.0162 59.53C20.4268 59.2407 20.9215 59.096 21.5002 59.096C22.0882 59.096 22.5642 59.236 22.9282 59.516C23.3015 59.796 23.5535 60.23 23.6842 60.818H23.4742C23.6515 60.286 23.9642 59.866 24.4122 59.558C24.8602 59.25 25.3828 59.096 25.9802 59.096C26.7548 59.096 27.3382 59.32 27.7302 59.768C28.1222 60.2067 28.3182 60.902 28.3182 61.854V66.25H27.1842V61.924C27.1842 61.2613 27.0675 60.7807 26.8342 60.482C26.6008 60.174 26.2275 60.02 25.7142 60.02C25.1262 60.02 24.6595 60.2253 24.3142 60.636C23.9782 61.0373 23.8102 61.5787 23.8102 62.26V66.25H22.6762V61.924C22.6762 61.2613 22.5595 60.7807 22.3262 60.482C22.0928 60.174 21.7195 60.02 21.2062 60.02C20.6182 60.02 20.1562 60.2253 19.8202 60.636C19.4842 61.0373 19.3162 61.5787 19.3162 62.26V66.25H18.1822ZM30.4732 69.274V60.846C30.4732 60.5847 30.4592 60.3187 30.4312 60.048C30.4125 59.768 30.3892 59.4927 30.3612 59.222H31.4532L31.6072 60.888H31.4392C31.5885 60.3373 31.8919 59.9033 32.3492 59.586C32.8065 59.2593 33.3525 59.096 33.9872 59.096C34.6219 59.096 35.1679 59.2407 35.6252 59.53C36.0919 59.8193 36.4559 60.2347 36.7172 60.776C36.9785 61.3173 37.1092 61.9707 37.1092 62.736C37.1092 63.492 36.9785 64.1407 36.7172 64.682C36.4652 65.2233 36.1059 65.6433 35.6392 65.942C35.1725 66.2313 34.6219 66.376 33.9872 66.376C33.3619 66.376 32.8205 66.2173 32.3632 65.9C31.9059 65.5827 31.6025 65.1487 31.4532 64.598H31.6072V69.274H30.4732ZM33.7632 65.452C34.4352 65.452 34.9672 65.2233 35.3592 64.766C35.7605 64.2993 35.9612 63.6227 35.9612 62.736C35.9612 61.84 35.7605 61.1633 35.3592 60.706C34.9672 60.2393 34.4352 60.006 33.7632 60.006C33.1005 60.006 32.5685 60.2393 32.1672 60.706C31.7752 61.1633 31.5792 61.84 31.5792 62.736C31.5792 63.6227 31.7752 64.2993 32.1672 64.766C32.5685 65.2233 33.1005 65.452 33.7632 65.452ZM41.5417 66.376C40.9164 66.376 40.3704 66.2313 39.9037 65.942C39.4371 65.6433 39.0731 65.2233 38.8117 64.682C38.5597 64.1407 38.4337 63.492 38.4337 62.736C38.4337 61.9707 38.5597 61.3173 38.8117 60.776C39.0731 60.2347 39.4371 59.8193 39.9037 59.53C40.3704 59.2407 40.9164 59.096 41.5417 59.096C42.1764 59.096 42.7224 59.2593 43.1797 59.586C43.6464 59.9033 43.9544 60.3373 44.1037 60.888H43.9357L44.0897 59.222H45.1817C45.1537 59.4927 45.1257 59.768 45.0977 60.048C45.0791 60.3187 45.0697 60.5847 45.0697 60.846V66.25H43.9357V64.598H44.0897C43.9404 65.1487 43.6324 65.5827 43.1657 65.9C42.6991 66.2173 42.1577 66.376 41.5417 66.376ZM41.7657 65.452C42.4377 65.452 42.9697 65.2233 43.3617 64.766C43.7537 64.2993 43.9497 63.6227 43.9497 62.736C43.9497 61.84 43.7537 61.1633 43.3617 60.706C42.9697 60.2393 42.4377 60.006 41.7657 60.006C41.1031 60.006 40.5711 60.2393 40.1697 60.706C39.7777 61.1633 39.5817 61.84 39.5817 62.736C39.5817 63.6227 39.7777 64.2993 40.1697 64.766C40.5711 65.2233 41.1031 65.452 41.7657 65.452ZM47.2623 66.25V60.846C47.2623 60.5847 47.2483 60.3187 47.2203 60.048C47.2016 59.768 47.1783 59.4927 47.1503 59.222H48.2423L48.3823 60.762H48.2142C48.4196 60.2207 48.7463 59.81 49.1943 59.53C49.6516 59.2407 50.1789 59.096 50.7763 59.096C51.6069 59.096 52.2323 59.32 52.6523 59.768C53.0816 60.2067 53.2963 60.902 53.2963 61.854V66.25H52.1623V61.924C52.1623 61.2613 52.0269 60.7807 51.7563 60.482C51.4949 60.174 51.0843 60.02 50.5243 60.02C49.8709 60.02 49.3529 60.2207 48.9703 60.622C48.5876 61.0233 48.3963 61.56 48.3963 62.232V66.25H47.2623ZM55.4654 66.25V59.222H56.5994V66.25H55.4654ZM55.3254 57.626V56.352H56.7254V57.626H55.3254ZM61.9233 66.376C60.822 66.376 59.954 66.0587 59.3193 65.424C58.6846 64.78 58.3673 63.8887 58.3673 62.75C58.3673 62.0127 58.5073 61.3733 58.7873 60.832C59.0673 60.2813 59.4593 59.8567 59.9633 59.558C60.4673 59.25 61.046 59.096 61.6993 59.096C62.3433 59.096 62.8846 59.2313 63.3233 59.502C63.762 59.7727 64.098 60.16 64.3313 60.664C64.5646 61.1587 64.6813 61.7467 64.6813 62.428V62.848H59.2353V62.134H63.9393L63.7013 62.316C63.7013 61.5693 63.5333 60.986 63.1973 60.566C62.8613 60.146 62.362 59.936 61.6993 59.936C60.9993 59.936 60.4533 60.1833 60.0613 60.678C59.6693 61.1633 59.4733 61.8213 59.4733 62.652V62.778C59.4733 63.6553 59.688 64.3227 60.1173 64.78C60.556 65.228 61.1673 65.452 61.9513 65.452C62.3713 65.452 62.7633 65.3913 63.1273 65.27C63.5006 65.1393 63.8553 64.9293 64.1913 64.64L64.5833 65.438C64.2753 65.7367 63.8833 65.97 63.4073 66.138C62.9406 66.2967 62.446 66.376 61.9233 66.376ZM68.7545 66.376C68.1945 66.376 67.6719 66.3013 67.1865 66.152C66.7012 65.9933 66.2999 65.774 65.9825 65.494L66.3745 64.696C66.7199 64.9667 67.0932 65.1673 67.4945 65.298C67.9052 65.4287 68.3299 65.494 68.7685 65.494C69.3285 65.494 69.7485 65.396 70.0285 65.2C70.3179 64.9947 70.4625 64.7147 70.4625 64.36C70.4625 64.0893 70.3692 63.8747 70.1825 63.716C70.0052 63.548 69.7112 63.4173 69.3005 63.324L67.9985 63.058C67.4012 62.9273 66.9532 62.708 66.6545 62.4C66.3559 62.0827 66.2065 61.6813 66.2065 61.196C66.2065 60.7853 66.3139 60.426 66.5285 60.118C66.7432 59.8007 67.0559 59.5533 67.4665 59.376C67.8772 59.1893 68.3579 59.096 68.9085 59.096C69.4219 59.096 69.8932 59.1753 70.3225 59.334C70.7612 59.4833 71.1252 59.7027 71.4145 59.992L71.0085 60.776C70.7285 60.5053 70.4065 60.3047 70.0425 60.174C69.6879 60.034 69.3192 59.964 68.9365 59.964C68.3859 59.964 67.9705 60.076 67.6905 60.3C67.4199 60.5147 67.2845 60.7993 67.2845 61.154C67.2845 61.4247 67.3685 61.6487 67.5365 61.826C67.7139 61.994 67.9845 62.12 68.3485 62.204L69.6505 62.47C70.2852 62.61 70.7565 62.8293 71.0645 63.128C71.3819 63.4173 71.5405 63.8093 71.5405 64.304C71.5405 64.724 71.4239 65.0927 71.1905 65.41C70.9572 65.718 70.6305 65.956 70.2105 66.124C69.7999 66.292 69.3145 66.376 68.7545 66.376ZM79.4903 66.376C78.6596 66.376 78.0296 66.1473 77.6003 65.69C77.1803 65.2327 76.9703 64.5327 76.9703 63.59V59.222H78.1043V63.562C78.1043 64.206 78.2349 64.682 78.4963 64.99C78.7576 65.2887 79.1636 65.438 79.7143 65.438C80.3303 65.438 80.8249 65.2373 81.1983 64.836C81.5716 64.4347 81.7583 63.898 81.7583 63.226V59.222H82.8923V66.25H81.7863V64.668H81.9683C81.7723 65.2093 81.4549 65.6293 81.0163 65.928C80.5869 66.2267 80.0783 66.376 79.4903 66.376ZM87.4303 66.376C86.8703 66.376 86.3477 66.3013 85.8623 66.152C85.377 65.9933 84.9757 65.774 84.6583 65.494L85.0503 64.696C85.3957 64.9667 85.769 65.1673 86.1703 65.298C86.581 65.4287 87.0057 65.494 87.4443 65.494C88.0043 65.494 88.4243 65.396 88.7043 65.2C88.9937 64.9947 89.1383 64.7147 89.1383 64.36C89.1383 64.0893 89.045 63.8747 88.8583 63.716C88.681 63.548 88.387 63.4173 87.9763 63.324L86.6743 63.058C86.077 62.9273 85.629 62.708 85.3303 62.4C85.0317 62.0827 84.8823 61.6813 84.8823 61.196C84.8823 60.7853 84.9897 60.426 85.2043 60.118C85.419 59.8007 85.7317 59.5533 86.1423 59.376C86.553 59.1893 87.0337 59.096 87.5843 59.096C88.0977 59.096 88.569 59.1753 88.9983 59.334C89.437 59.4833 89.801 59.7027 90.0903 59.992L89.6843 60.776C89.4043 60.5053 89.0823 60.3047 88.7183 60.174C88.3637 60.034 87.995 59.964 87.6123 59.964C87.0617 59.964 86.6463 60.076 86.3663 60.3C86.0957 60.5147 85.9603 60.7993 85.9603 61.154C85.9603 61.4247 86.0443 61.6487 86.2123 61.826C86.3897 61.994 86.6603 62.12 87.0243 62.204L88.3263 62.47C88.961 62.61 89.4323 62.8293 89.7403 63.128C90.0577 63.4173 90.2163 63.8093 90.2163 64.304C90.2163 64.724 90.0997 65.0927 89.8663 65.41C89.633 65.718 89.3063 65.956 88.8863 66.124C88.4757 66.292 87.9903 66.376 87.4303 66.376ZM92.0376 66.25V59.222H93.1716V66.25H92.0376ZM91.8976 57.626V56.352H93.2976V57.626H91.8976ZM95.3736 66.25V60.846C95.3736 60.5847 95.3596 60.3187 95.3316 60.048C95.3129 59.768 95.2896 59.4927 95.2616 59.222H96.3536L96.4936 60.762H96.3256C96.5309 60.2207 96.8576 59.81 97.3056 59.53C97.7629 59.2407 98.2902 59.096 98.8876 59.096C99.7182 59.096 100.344 59.32 100.764 59.768C101.193 60.2067 101.408 60.902 101.408 61.854V66.25H100.274V61.924C100.274 61.2613 100.138 60.7807 99.8676 60.482C99.6062 60.174 99.1956 60.02 98.6356 60.02C97.9822 60.02 97.4642 60.2207 97.0816 60.622C96.6989 61.0233 96.5076 61.56 96.5076 62.232V66.25H95.3736ZM106.671 69.372C106.064 69.372 105.504 69.2973 104.991 69.148C104.477 68.9987 104.015 68.77 103.605 68.462L103.941 67.608C104.23 67.8133 104.515 67.9767 104.795 68.098C105.075 68.2193 105.364 68.308 105.663 68.364C105.961 68.4293 106.279 68.462 106.615 68.462C107.305 68.462 107.828 68.28 108.183 67.916C108.537 67.552 108.715 67.034 108.715 66.362V64.304H108.855C108.705 64.8547 108.397 65.2933 107.931 65.62C107.464 65.9373 106.918 66.096 106.293 66.096C105.649 66.096 105.089 65.956 104.613 65.676C104.146 65.3867 103.782 64.9807 103.521 64.458C103.269 63.926 103.143 63.3007 103.143 62.582C103.143 61.8727 103.269 61.2567 103.521 60.734C103.782 60.2113 104.146 59.81 104.613 59.53C105.089 59.2407 105.649 59.096 106.293 59.096C106.927 59.096 107.473 59.2547 107.931 59.572C108.397 59.8893 108.705 60.328 108.855 60.888L108.715 60.748L108.841 59.222H109.947C109.909 59.4927 109.881 59.768 109.863 60.048C109.844 60.3187 109.835 60.5847 109.835 60.846V66.208C109.835 67.2533 109.564 68.042 109.023 68.574C108.491 69.106 107.707 69.372 106.671 69.372ZM106.503 65.172C107.184 65.172 107.721 64.948 108.113 64.5C108.505 64.0427 108.701 63.4033 108.701 62.582C108.701 61.7607 108.505 61.126 108.113 60.678C107.721 60.23 107.184 60.006 106.503 60.006C105.831 60.006 105.294 60.23 104.893 60.678C104.491 61.126 104.291 61.7607 104.291 62.582C104.291 63.4033 104.491 64.0427 104.893 64.5C105.294 64.948 105.831 65.172 106.503 65.172ZM118.477 66.25L115.033 56.38H116.251L119.261 65.27H118.771L121.935 56.38H122.859L125.855 65.27H125.407L128.501 56.38H129.649L126.177 66.25H125.141L122.229 57.696H122.523L119.485 66.25H118.477ZM129.615 66.25L133.969 56.38H134.977L139.401 66.25H138.197L136.965 63.436L137.483 63.73H131.449L132.009 63.436L130.805 66.25H129.615ZM134.459 57.71L132.191 63.03L131.855 62.778H137.063L136.811 63.03L134.487 57.71H134.459ZM140.89 66.25V56.38H144.838C145.884 56.38 146.691 56.604 147.26 57.052C147.83 57.5 148.114 58.1347 148.114 58.956C148.114 59.572 147.928 60.0853 147.554 60.496C147.19 60.9067 146.682 61.1773 146.028 61.308V61.112C146.756 61.196 147.326 61.448 147.736 61.868C148.156 62.2787 148.366 62.834 148.366 63.534C148.366 64.4113 148.072 65.0833 147.484 65.55C146.906 66.0167 146.084 66.25 145.02 66.25H140.89ZM142.024 65.312H144.908C145.618 65.312 146.178 65.1767 146.588 64.906C147.008 64.626 147.218 64.164 147.218 63.52C147.218 62.8667 147.008 62.4047 146.588 62.134C146.178 61.854 145.618 61.714 144.908 61.714H142.024V65.312ZM142.024 60.79H144.67C145.436 60.79 146.01 60.6407 146.392 60.342C146.775 60.0433 146.966 59.614 146.966 59.054C146.966 58.4753 146.775 58.0413 146.392 57.752C146.01 57.4533 145.436 57.304 144.67 57.304H142.024V60.79ZM149.316 66.25L153.67 56.38H154.678L159.102 66.25H157.898L156.666 63.436L157.184 63.73H151.15L151.71 63.436L150.506 66.25H149.316ZM154.16 57.71L151.892 63.03L151.556 62.778H156.764L156.512 63.03L154.188 57.71H154.16ZM160.591 66.25V56.38H161.753V66.25H160.591ZM167.434 66.376C166.641 66.376 165.932 66.2733 165.306 66.068C164.681 65.8627 164.135 65.5687 163.668 65.186L164.088 64.262C164.415 64.5047 164.742 64.71 165.068 64.878C165.404 65.0367 165.764 65.158 166.146 65.242C166.529 65.3167 166.958 65.354 167.434 65.354C168.265 65.354 168.881 65.2 169.282 64.892C169.684 64.584 169.884 64.1733 169.884 63.66C169.884 63.2213 169.744 62.8853 169.464 62.652C169.184 62.4187 168.694 62.232 167.994 62.092L166.524 61.798C165.619 61.6113 164.942 61.308 164.494 60.888C164.056 60.468 163.836 59.8987 163.836 59.18C163.836 58.592 163.986 58.0787 164.284 57.64C164.592 57.2013 165.022 56.8607 165.572 56.618C166.123 56.3753 166.762 56.254 167.49 56.254C168.19 56.254 168.83 56.3613 169.408 56.576C169.987 56.7813 170.482 57.0847 170.892 57.486L170.486 58.382C170.048 57.99 169.586 57.71 169.1 57.542C168.624 57.3647 168.083 57.276 167.476 57.276C166.711 57.276 166.104 57.444 165.656 57.78C165.218 58.1067 164.998 58.5547 164.998 59.124C164.998 59.5813 165.138 59.9407 165.418 60.202C165.698 60.454 166.16 60.6453 166.804 60.776L168.288 61.07C169.24 61.266 169.94 61.56 170.388 61.952C170.836 62.344 171.06 62.8947 171.06 63.604C171.06 64.1453 170.911 64.626 170.612 65.046C170.323 65.466 169.908 65.7927 169.366 66.026C168.825 66.2593 168.181 66.376 167.434 66.376Z" fill="white"/>
</g>
<defs>
<clipPath id="clip0_61_565">
<rect width="172" height="71" fill="white" transform="translate(0 0.25)"/>
</clipPath>
</defs>
</svg>
