<svg width="70" height="71" viewBox="0 0 70 71" fill="none" xmlns="http://www.w3.org/2000/svg">
<rect y="0.25" width="70" height="70" rx="10" fill="white"/>
<path d="M47.1875 23.75C48.7109 23.75 50 25.0391 50 26.5625C50 27.5 49.5312 28.3203 48.8281 28.8477L36.1133 38.3984C35.4102 38.9258 34.5312 38.9258 33.8281 38.3984L21.1133 28.8477C20.4102 28.3203 20 27.5 20 26.5625C20 25.0391 21.2305 23.75 22.8125 23.75H47.1875ZM32.7148 39.9219C34.0625 40.918 35.8789 40.918 37.2266 39.9219L50 30.3125V42.5C50 44.6094 48.3008 46.25 46.25 46.25H23.75C21.6406 46.25 20 44.6094 20 42.5V30.3125L32.7148 39.9219Z" fill="black"/>
</svg>
