<svg width="45" height="46" viewBox="0 0 45 46" fill="none" xmlns="http://www.w3.org/2000/svg">
<rect x="0.5" y="0.75" width="44" height="44" rx="22" stroke="#8A8A8A"/>
<path d="M22.5 19.5455C20.7266 19.5455 19.2953 20.9767 19.2953 22.7502C19.2953 24.5236 20.7266 25.9549 22.5 25.9549C24.2735 25.9549 25.7047 24.5236 25.7047 22.7502C25.7047 20.9767 24.2735 19.5455 22.5 19.5455ZM22.5 24.833C21.3531 24.833 20.4172 23.897 20.4172 22.7502C20.4172 21.6033 21.3531 20.6674 22.5 20.6674C23.6469 20.6674 24.5828 21.6033 24.5828 22.7502C24.5828 23.897 23.6469 24.833 22.5 24.833ZM25.836 18.6674C25.4219 18.6674 25.0875 19.0017 25.0875 19.4158C25.0875 19.8299 25.4219 20.1642 25.836 20.1642C26.25 20.1642 26.5844 19.8314 26.5844 19.4158C26.5845 19.3175 26.5652 19.2201 26.5277 19.1292C26.4901 19.0384 26.435 18.9558 26.3655 18.8863C26.2959 18.8168 26.2134 18.7616 26.1225 18.7241C26.0317 18.6865 25.9343 18.6672 25.836 18.6674ZM28.7469 22.7502C28.7469 21.8877 28.7547 21.033 28.7063 20.172C28.6578 19.172 28.4297 18.2845 27.6985 17.5533C26.9656 16.8205 26.0797 16.5939 25.0797 16.5455C24.2172 16.497 23.3625 16.5049 22.5016 16.5049C21.6391 16.5049 20.7844 16.497 19.9235 16.5455C18.9235 16.5939 18.036 16.822 17.3047 17.5533C16.5719 18.2861 16.3453 19.172 16.2969 20.172C16.2485 21.0345 16.2563 21.8892 16.2563 22.7502C16.2563 23.6111 16.2485 24.4674 16.2969 25.3283C16.3453 26.3283 16.5735 27.2158 17.3047 27.947C18.0375 28.6799 18.9235 28.9064 19.9235 28.9549C20.786 29.0033 21.6406 28.9955 22.5016 28.9955C23.3641 28.9955 24.2188 29.0033 25.0797 28.9549C26.0797 28.9064 26.9672 28.6783 27.6985 27.947C28.4313 27.2142 28.6578 26.3283 28.7063 25.3283C28.7563 24.4674 28.7469 23.6127 28.7469 22.7502ZM27.3719 26.4345C27.2578 26.7189 27.1203 26.9314 26.9 27.1502C26.6797 27.3705 26.4688 27.508 26.1844 27.622C25.3625 27.9486 23.411 27.8752 22.5 27.8752C21.5891 27.8752 19.636 27.9486 18.8141 27.6236C18.5297 27.5095 18.3172 27.372 18.0985 27.1517C17.8781 26.9314 17.7406 26.7205 17.6266 26.4361C17.3016 25.6127 17.375 23.6611 17.375 22.7502C17.375 21.8392 17.3016 19.8861 17.6266 19.0642C17.7406 18.7799 17.8781 18.5674 18.0985 18.3486C18.3188 18.1299 18.5297 17.9908 18.8141 17.8767C19.636 17.5517 21.5891 17.6252 22.5 17.6252C23.411 17.6252 25.3641 17.5517 26.186 17.8767C26.4703 17.9908 26.6828 18.1283 26.9016 18.3486C27.1219 18.5689 27.2594 18.7799 27.3735 19.0642C27.6985 19.8861 27.625 21.8392 27.625 22.7502C27.625 23.6611 27.6985 25.6127 27.3719 26.4345Z" fill="white"/>
</svg>
