<svg width="45" height="46" viewBox="0 0 45 46" fill="none" xmlns="http://www.w3.org/2000/svg">
<rect x="0.5" y="0.75" width="44" height="44" rx="22" stroke="#8A8A8A"/>
<path fill-rule="evenodd" clip-rule="evenodd" d="M15.5 12C14.7707 12 14.0712 12.2897 13.5555 12.8055C13.0397 13.3212 12.75 14.0207 12.75 14.75C12.75 15.4793 13.0397 16.1788 13.5555 16.6945C14.0712 17.2103 14.7707 17.5 15.5 17.5C16.2293 17.5 16.9288 17.2103 17.4445 16.6945C17.9603 16.1788 18.25 15.4793 18.25 14.75C18.25 14.0207 17.9603 13.3212 17.4445 12.8055C16.9288 12.2897 16.2293 12 15.5 12ZM14.25 14.75C14.25 14.4185 14.3817 14.1005 14.6161 13.8661C14.8505 13.6317 15.1685 13.5 15.5 13.5C15.8315 13.5 16.1495 13.6317 16.3839 13.8661C16.6183 14.1005 16.75 14.4185 16.75 14.75C16.75 15.0815 16.6183 15.3995 16.3839 15.6339C16.1495 15.8683 15.8315 16 15.5 16C15.1685 16 14.8505 15.8683 14.6161 15.6339C14.3817 15.3995 14.25 15.0815 14.25 14.75ZM12.75 18.75C12.75 18.5511 12.829 18.3603 12.9697 18.2197C13.1103 18.079 13.3011 18 13.5 18H17.5C17.6989 18 17.8897 18.079 18.0303 18.2197C18.171 18.3603 18.25 18.5511 18.25 18.75V31.75C18.25 31.9489 18.171 32.1397 18.0303 32.2803C17.8897 32.421 17.6989 32.5 17.5 32.5H13.5C13.3011 32.5 13.1103 32.421 12.9697 32.2803C12.829 32.1397 12.75 31.9489 12.75 31.75V18.75ZM14.25 19.5V31H16.75V19.5H14.25ZM19.75 18.75C19.75 18.5511 19.829 18.3603 19.9697 18.2197C20.1103 18.079 20.3011 18 20.5 18H24.5C24.6989 18 24.8897 18.079 25.0303 18.2197C25.171 18.3603 25.25 18.5511 25.25 18.75V19.184L25.685 18.997C26.4351 18.6766 27.2307 18.4758 28.043 18.402C30.818 18.15 33.25 20.33 33.25 23.13V31.75C33.25 31.9489 33.171 32.1397 33.0303 32.2803C32.8897 32.421 32.6989 32.5 32.5 32.5H28.5C28.3011 32.5 28.1103 32.421 27.9697 32.2803C27.829 32.1397 27.75 31.9489 27.75 31.75V24.75C27.75 24.4185 27.6183 24.1005 27.3839 23.8661C27.1495 23.6317 26.8315 23.5 26.5 23.5C26.1685 23.5 25.8505 23.6317 25.6161 23.8661C25.3817 24.1005 25.25 24.4185 25.25 24.75V31.75C25.25 31.9489 25.171 32.1397 25.0303 32.2803C24.8897 32.421 24.6989 32.5 24.5 32.5H20.5C20.3011 32.5 20.1103 32.421 19.9697 32.2803C19.829 32.1397 19.75 31.9489 19.75 31.75V18.75ZM21.25 19.5V31H23.75V24.75C23.75 24.0207 24.0397 23.3212 24.5555 22.8055C25.0712 22.2897 25.7707 22 26.5 22C27.2293 22 27.9288 22.2897 28.4445 22.8055C28.9603 23.3212 29.25 24.0207 29.25 24.75V31H31.75V23.13C31.75 21.226 30.089 19.722 28.18 19.896C27.5241 19.9555 26.8817 20.1175 26.276 20.376L24.796 21.011C24.6818 21.06 24.5573 21.0799 24.4336 21.0689C24.3098 21.0579 24.1907 21.0163 24.087 20.9479C23.9833 20.8795 23.8982 20.7864 23.8394 20.677C23.7806 20.5676 23.7499 20.4452 23.75 20.321V19.5H21.25Z" fill="white"/>
</svg>
