<svg width="70" height="71" viewBox="0 0 70 71" fill="none" xmlns="http://www.w3.org/2000/svg">
<rect y="0.25" width="70" height="70" rx="10" fill="white"/>
<path d="M33.3438 49.2969C30.2969 45.4883 23.5 36.4062 23.5 31.25C23.5 25.0391 28.4805 20 34.75 20C40.9609 20 46 25.0391 46 31.25C46 36.4062 39.1445 45.4883 36.0977 49.2969C35.3945 50.1758 34.0469 50.1758 33.3438 49.2969ZM34.75 35C36.8008 35 38.5 33.3594 38.5 31.25C38.5 29.1992 36.8008 27.5 34.75 27.5C32.6406 27.5 31 29.1992 31 31.25C31 33.3594 32.6406 35 34.75 35Z" fill="black"/>
</svg>
