<svg width="46" height="46" viewBox="0 0 46 46" fill="none" xmlns="http://www.w3.org/2000/svg">
<rect x="0.5" y="0.75" width="45" height="45" rx="22.5" fill="black"/>
<path d="M14.6 13.4502H31.4C32.17 13.4502 32.828 13.7302 33.374 14.2762C33.92 14.8222 34.2 15.4802 34.2 16.2502V26.0502C34.2 26.8202 33.92 27.4782 33.374 28.0242C32.828 28.5702 32.17 28.8502 31.4 28.8502H30L23 35.8502V28.8502H14.6C13.83 28.8502 13.172 28.5702 12.626 28.0242C12.08 27.4782 11.8 26.8202 11.8 26.0502V16.2502C11.8 15.4802 12.08 14.8222 12.626 14.2762C13.172 13.7302 13.83 13.4502 14.6 13.4502ZM30 16.2502H14.6V17.6502H30V16.2502ZM31.4 20.4502H14.6V21.8502H31.4V20.4502ZM27.2 24.6502H14.6V26.0502H27.2V24.6502Z" fill="white"/>
</svg>
