<svg width="46" height="46" viewBox="0 0 46 46" fill="none" xmlns="http://www.w3.org/2000/svg">
<rect x="0.5" y="0.75" width="45" height="45" rx="22.5" fill="black"/>
<path d="M14.6 13.45H31.4C32.17 13.45 32.828 13.73 33.374 14.276C33.92 14.822 34.2 15.48 34.2 16.25V26.05C34.2 26.82 33.92 27.478 33.374 28.024C32.828 28.57 32.17 28.85 31.4 28.85H30L23 35.85V28.85H14.6C13.83 28.85 13.172 28.57 12.626 28.024C12.08 27.478 11.8 26.82 11.8 26.05V16.25C11.8 15.48 12.08 14.822 12.626 14.276C13.172 13.73 13.83 13.45 14.6 13.45ZM30 16.25H14.6V17.65H30V16.25ZM31.4 20.45H14.6V21.85H31.4V20.45ZM27.2 24.65H14.6V26.05H27.2V24.65Z" fill="white"/>
</svg>
