<svg width="45" height="46" viewBox="0 0 45 46" fill="none" xmlns="http://www.w3.org/2000/svg">
<rect y="0.25" width="45" height="45" rx="22.5" fill="white"/>
<path d="M21.0858 19.2569C20.9851 19.2604 20.8848 19.2436 20.7907 19.2076C20.6967 19.1715 20.6109 19.1169 20.5384 19.0469C20.466 18.977 20.4083 18.8931 20.369 18.8004C20.3296 18.7077 20.3093 18.608 20.3093 18.5073C20.3093 18.4066 20.3296 18.3069 20.369 18.2142C20.4083 18.1215 20.466 18.0377 20.5384 17.9677C20.6109 17.8978 20.6967 17.8431 20.7907 17.8071C20.8848 17.771 20.9851 17.7542 21.0858 17.7578L26.7426 17.7578C26.9414 17.7579 27.132 17.8369 27.2725 17.9775C27.413 18.118 27.492 18.3086 27.4922 18.5073L27.4922 24.1642C27.4957 24.2648 27.479 24.3652 27.4429 24.4592C27.4068 24.5532 27.3522 24.6391 27.2822 24.7115C27.2123 24.784 27.1285 24.8416 27.0357 24.881C26.943 24.9203 26.8434 24.9406 26.7426 24.9406C26.6419 24.9406 26.5422 24.9203 26.4495 24.881C26.3568 24.8416 26.273 24.784 26.203 24.7115C26.1331 24.6391 26.0784 24.5532 26.0424 24.4592C26.0063 24.3652 25.9895 24.2648 25.9931 24.1642L25.9931 20.3175L19.1412 27.1694C19.0006 27.31 18.8098 27.389 18.6109 27.389C18.412 27.389 18.2212 27.31 18.0806 27.1694C17.9399 27.0287 17.8609 26.838 17.8609 26.639C17.8609 26.4401 17.9399 26.2494 18.0806 26.1087L24.9324 19.2569L21.0858 19.2569Z" fill="black"/>
</svg>
