<svg width="46" height="46" viewBox="0 0 46 46" fill="none" xmlns="http://www.w3.org/2000/svg">
<path d="M23 0.709229C35.4267 0.709229 45.5 10.7825 45.5 23.2092C45.5 35.636 35.4267 45.7092 23 45.7092C10.5732 45.7092 0.5 35.636 0.5 23.2092C0.5 10.7825 10.5732 0.709229 23 0.709229ZM23 32.2092C22.4033 32.2092 21.831 32.4463 21.409 32.8682C20.987 33.2902 20.75 33.8625 20.75 34.4592C20.75 35.056 20.987 35.6283 21.409 36.0502C21.831 36.4722 22.4033 36.7092 23 36.7092C23.5967 36.7092 24.169 36.4722 24.591 36.0502C25.0129 35.6283 25.25 35.056 25.25 34.4592C25.25 33.8625 25.0129 33.2902 24.591 32.8682C24.169 32.4463 23.5967 32.2092 23 32.2092ZM23 10.8342C20.8368 10.8342 18.7623 11.6935 17.2327 13.2231C15.7031 14.7527 14.8437 16.8273 14.8437 18.9905C14.8437 19.5872 15.0808 20.1595 15.5028 20.5815C15.9247 21.0034 16.497 21.2405 17.0937 21.2405C17.6905 21.2405 18.2628 21.0034 18.6847 20.5815C19.1067 20.1595 19.3437 19.5872 19.3437 18.9905C19.3445 18.3268 19.5259 17.6759 19.8684 17.1074C20.211 16.539 20.7018 16.0745 21.2882 15.7638C21.8746 15.4531 22.5346 15.3078 23.1973 15.3437C23.86 15.3795 24.5005 15.595 25.05 15.9671C25.5995 16.3392 26.0374 16.8539 26.3167 17.4559C26.596 18.0579 26.7062 18.7247 26.6354 19.3845C26.5646 20.0444 26.3155 20.6726 25.9149 21.2017C25.5143 21.7308 24.9772 22.1409 24.3612 22.388C22.8402 22.9955 20.75 24.5525 20.75 27.1467V27.7092C20.75 28.306 20.987 28.8783 21.409 29.3002C21.831 29.7222 22.4033 29.9592 23 29.9592C23.5967 29.9592 24.169 29.7222 24.591 29.3002C25.0129 28.8783 25.25 28.306 25.25 27.7092C25.25 27.1602 25.3625 26.8857 25.8372 26.6517L26.033 26.5617C27.7898 25.855 29.2461 24.5591 30.1521 22.8963C31.0582 21.2335 31.3576 19.3072 30.999 17.4478C30.6404 15.5884 29.6462 13.9117 28.1868 12.705C26.7274 11.4984 24.8937 10.837 23 10.8342Z" fill="black"/>
</svg>
