<svg width="76" height="57" viewBox="0 0 76 57" fill="none" xmlns="http://www.w3.org/2000/svg">
<g clip-path="url(#clip0_56_239)">
<path d="M31 11.9167C32.2377 11.9167 33.4247 12.4084 34.2998 13.2836C35.175 14.1588 35.6667 15.3457 35.6667 16.5834V30.5834C35.6667 37.8867 31.8167 42.7004 24.567 44.5134C24.2689 44.5903 23.9586 44.6075 23.6539 44.564C23.3492 44.5205 23.0561 44.4171 22.7915 44.2598C22.5269 44.1025 22.296 43.8944 22.1122 43.6475C21.9284 43.4006 21.7952 43.1197 21.7204 42.8211C21.6456 42.5226 21.6307 42.2121 21.6764 41.9077C21.7221 41.6033 21.8275 41.3109 21.9867 41.0475C22.1459 40.784 22.3557 40.5546 22.6039 40.3726C22.8521 40.1905 23.1339 40.0594 23.433 39.9867C28.6293 38.6871 31 35.7237 31 30.5834V28.2501H24C22.8226 28.2505 21.6887 27.8058 20.8254 27.0053C19.9621 26.2047 19.4333 25.1074 19.345 23.9334L19.3333 23.5834V16.5834C19.3333 15.3457 19.825 14.1588 20.7002 13.2836C21.5753 12.4084 22.7623 11.9167 24 11.9167H31ZM52 11.9167C53.2377 11.9167 54.4247 12.4084 55.2998 13.2836C56.175 14.1588 56.6667 15.3457 56.6667 16.5834V30.5834C56.6667 37.8867 52.8167 42.7004 45.567 44.5134C45.2689 44.5903 44.9586 44.6075 44.6539 44.564C44.3492 44.5205 44.0561 44.4171 43.7915 44.2598C43.5269 44.1025 43.296 43.8944 43.1122 43.6475C42.9284 43.4006 42.7952 43.1197 42.7204 42.8211C42.6456 42.5226 42.6307 42.2121 42.6764 41.9077C42.7221 41.6033 42.8275 41.3109 42.9867 41.0475C43.1459 40.784 43.3557 40.5546 43.6039 40.3726C43.8521 40.1905 44.1339 40.0594 44.433 39.9867C49.6293 38.6871 52 35.7237 52 30.5834V28.2501H45C43.8226 28.2505 42.6887 27.8058 41.8254 27.0053C40.9621 26.2047 40.4333 25.1074 40.345 23.9334L40.3333 23.5834V16.5834C40.3333 15.3457 40.825 14.1588 41.7002 13.2836C42.5753 12.4084 43.7623 11.9167 45 11.9167H52Z" fill="white"/>
</g>
<defs>
<clipPath id="clip0_56_239">
<rect width="76" height="56" fill="white" transform="translate(0 0.25)"/>
</clipPath>
</defs>
</svg>
