<svg width="211" height="92" viewBox="0 0 211 92" fill="none" xmlns="http://www.w3.org/2000/svg">
<path d="M30.0235 31.317C30.142 31.1099 30.3233 30.9458 30.5411 30.8484C30.759 30.7511 31.0022 30.7256 31.2355 30.7755L31.426 30.816C32.2196 30.986 32.9688 31.3203 33.6253 31.7974C34.2819 32.2745 34.8313 32.8838 35.2381 33.5861C35.6449 34.2883 35.9001 35.068 35.9874 35.8749C36.0746 36.6818 35.9918 37.498 35.7445 38.271L34.7905 41.25H36.496C40.4635 41.25 43.2655 45.1365 42.01 48.9L39.6715 55.917C39.3479 56.8875 38.7271 57.7317 37.8972 58.3299C37.0672 58.928 36.0701 59.25 35.047 59.25H27.1135C25.5697 59.2503 24.0725 58.7214 22.8715 57.7515C22.6584 58.2 22.3225 58.5789 21.9027 58.8441C21.4829 59.1094 20.9965 59.2501 20.5 59.25H17.125C16.4288 59.25 15.7611 58.9734 15.2688 58.4812C14.7766 57.9889 14.5 57.3212 14.5 56.625V43.875C14.5 42.426 15.676 41.25 17.125 41.25H24.13C24.1961 41.25 24.261 41.2325 24.3182 41.1993C24.3753 41.1661 24.4227 41.1184 24.4555 41.061L30.0235 31.317ZM23.125 54.99L24.1495 55.887C24.9701 56.6048 26.0233 57.0003 27.1135 57H35.047C35.598 56.9999 36.1349 56.8264 36.5818 56.5042C37.0287 56.1819 37.3629 55.7272 37.537 55.2045L39.8755 48.189C40.054 47.6535 40.1027 47.0833 40.0176 46.5252C39.9324 45.9672 39.7159 45.4374 39.3859 44.9795C39.0558 44.5216 38.6217 44.1487 38.1193 43.8914C37.6168 43.6342 37.0605 43.5 36.496 43.5H33.25C33.0729 43.5 32.8982 43.4581 32.7403 43.3778C32.5824 43.2975 32.4457 43.181 32.3413 43.0379C32.2369 42.8948 32.1678 42.729 32.1396 42.5541C32.1114 42.3793 32.1249 42.2002 32.179 42.0315L33.601 37.5855C33.8754 36.7289 33.8156 35.8001 33.4336 34.9857C33.0516 34.1713 32.3757 33.5316 31.5415 33.195L26.4085 42.177C26.179 42.5788 25.8474 42.9127 25.4473 43.1451C25.0471 43.3774 24.5927 43.4999 24.13 43.5H23.125V54.99ZM20.875 43.5H17.125C17.0255 43.5 16.9302 43.5395 16.8598 43.6098C16.7895 43.6802 16.75 43.7755 16.75 43.875V56.625C16.75 56.832 16.918 57 17.125 57H20.5C20.5995 57 20.6948 56.9605 20.7652 56.8902C20.8355 56.8198 20.875 56.7245 20.875 56.625V43.5Z" fill="white"/>
<g clip-path="url(#clip0_61_523)">
<path d="M69.5 49.25V44.732H57.8V41.168L66.224 23.33H70.526L62.102 41.168H69.5V34.148H73.316V41.168H75.89V44.732H73.316V49.25H69.5ZM80.1563 49.25V45.272H84.1343V49.25H80.1563ZM98.1071 49.79C96.4151 49.79 94.9151 49.454 93.6071 48.782C92.3111 48.098 91.2911 47.15 90.5471 45.938C89.8151 44.726 89.4491 43.322 89.4491 41.726C89.4491 40.238 89.7971 38.876 90.4931 37.64C91.1891 36.404 92.2271 35.432 93.6071 34.724L93.5351 36.02C92.4311 35.336 91.5791 34.484 90.9791 33.464C90.3911 32.432 90.0971 31.28 90.0971 30.008C90.0971 28.532 90.4391 27.254 91.1231 26.174C91.8071 25.094 92.7491 24.26 93.9491 23.672C95.1611 23.084 96.5471 22.79 98.1071 22.79C99.6671 22.79 101.047 23.084 102.247 23.672C103.447 24.26 104.389 25.094 105.073 26.174C105.757 27.254 106.099 28.532 106.099 30.008C106.099 31.28 105.817 32.426 105.253 33.446C104.689 34.466 103.825 35.324 102.661 36.02L102.607 34.76C103.975 35.432 105.013 36.392 105.721 37.64C106.429 38.876 106.783 40.238 106.783 41.726C106.783 43.322 106.411 44.726 105.667 45.938C104.923 47.15 103.897 48.098 102.589 48.782C101.281 49.454 99.7871 49.79 98.1071 49.79ZM98.1071 46.208C99.4991 46.208 100.627 45.83 101.491 45.074C102.355 44.306 102.787 43.19 102.787 41.726C102.787 40.262 102.355 39.146 101.491 38.378C100.639 37.598 99.5111 37.208 98.1071 37.208C96.7031 37.208 95.5691 37.598 94.7051 38.378C93.8531 39.146 93.4271 40.262 93.4271 41.726C93.4271 43.19 93.8591 44.306 94.7231 45.074C95.5871 45.83 96.7151 46.208 98.1071 46.208ZM98.1071 33.608C99.2951 33.608 100.255 33.314 100.987 32.726C101.731 32.126 102.103 31.22 102.103 30.008C102.103 28.796 101.731 27.89 100.987 27.29C100.255 26.678 99.2951 26.372 98.1071 26.372C96.9191 26.372 95.9531 26.678 95.2091 27.29C94.4651 27.89 94.0931 28.796 94.0931 30.008C94.0931 31.22 94.4651 32.126 95.2091 32.726C95.9531 33.314 96.9191 33.608 98.1071 33.608ZM118.017 23.33H121.815L114.903 49.25H111.105L118.017 23.33ZM134.198 49.79C132.866 49.79 131.624 49.52 130.472 48.98C129.332 48.428 128.354 47.672 127.538 46.712C126.722 45.74 126.14 44.624 125.792 43.364L129.41 42.392C129.614 43.16 129.962 43.826 130.454 44.39C130.958 44.954 131.546 45.392 132.218 45.704C132.89 46.004 133.586 46.154 134.306 46.154C135.254 46.154 136.112 45.926 136.88 45.47C137.66 45.014 138.272 44.402 138.716 43.634C139.172 42.866 139.4 42.02 139.4 41.096C139.4 40.148 139.166 39.29 138.698 38.522C138.242 37.754 137.624 37.148 136.844 36.704C136.076 36.248 135.23 36.02 134.306 36.02C133.25 36.02 132.356 36.23 131.624 36.65C130.892 37.07 130.322 37.556 129.914 38.108L126.638 36.956L127.43 23.33H141.416V26.876H129.356L130.886 25.454L130.256 35.66L129.518 34.706C130.202 34.022 131.018 33.5 131.966 33.14C132.914 32.78 133.856 32.6 134.792 32.6C136.4 32.6 137.834 32.972 139.094 33.716C140.366 34.46 141.368 35.474 142.1 36.758C142.832 38.03 143.198 39.476 143.198 41.096C143.198 42.704 142.784 44.168 141.956 45.488C141.128 46.796 140.03 47.84 138.662 48.62C137.294 49.4 135.806 49.79 134.198 49.79Z" fill="white"/>
<path d="M56.98 76.25V66.17H60.872C60.97 66.17 61.0797 66.1747 61.201 66.184C61.327 66.1887 61.453 66.2027 61.579 66.226C62.1063 66.3053 62.552 66.4897 62.916 66.779C63.2847 67.0637 63.5623 67.423 63.749 67.857C63.9403 68.291 64.036 68.7717 64.036 69.299C64.036 70.0597 63.8353 70.72 63.434 71.28C63.0327 71.84 62.4587 72.1923 61.712 72.337L61.355 72.421H58.009V76.25H56.98ZM63.084 76.25L61.096 72.148L62.083 71.77L64.267 76.25H63.084ZM58.009 71.441H60.844C60.928 71.441 61.026 71.4363 61.138 71.427C61.25 71.4177 61.3597 71.4013 61.467 71.378C61.8123 71.3033 62.0947 71.161 62.314 70.951C62.538 70.741 62.7037 70.4913 62.811 70.202C62.923 69.9127 62.979 69.6117 62.979 69.299C62.979 68.9863 62.923 68.6853 62.811 68.396C62.7037 68.102 62.538 67.85 62.314 67.64C62.0947 67.43 61.8123 67.2877 61.467 67.213C61.3597 67.1897 61.25 67.1757 61.138 67.171C61.026 67.1617 60.928 67.157 60.844 67.157H58.009V71.441ZM67.975 76.46C67.4057 76.46 66.9274 76.3573 66.54 76.152C66.1574 75.9467 65.8704 75.6737 65.679 75.333C65.4877 74.9923 65.392 74.6213 65.392 74.22C65.392 73.8093 65.4737 73.4593 65.637 73.17C65.805 72.876 66.0314 72.6357 66.316 72.449C66.6054 72.2623 66.939 72.12 67.317 72.022C67.6997 71.9287 68.122 71.847 68.584 71.777C69.0507 71.7023 69.5057 71.6393 69.949 71.588C70.397 71.532 70.789 71.4783 71.125 71.427L70.761 71.651C70.775 70.9043 70.6304 70.3513 70.327 69.992C70.0237 69.6327 69.4964 69.453 68.745 69.453C68.227 69.453 67.7884 69.5697 67.429 69.803C67.0744 70.0363 66.8247 70.405 66.68 70.909L65.679 70.615C65.8517 69.9383 66.1994 69.4133 66.722 69.04C67.2447 68.6667 67.9237 68.48 68.759 68.48C69.4497 68.48 70.0354 68.6107 70.516 68.872C71.0014 69.1287 71.3444 69.502 71.545 69.992C71.6384 70.2113 71.699 70.4563 71.727 70.727C71.755 70.9977 71.769 71.273 71.769 71.553V76.25H70.852V74.353L71.118 74.465C70.8614 75.1137 70.4624 75.6083 69.921 75.949C69.3797 76.2897 68.731 76.46 67.975 76.46ZM68.094 75.571C68.5747 75.571 68.9947 75.4847 69.354 75.312C69.7134 75.1393 70.0027 74.9037 70.222 74.605C70.4414 74.3017 70.5837 73.961 70.649 73.583C70.705 73.3403 70.7354 73.0743 70.74 72.785C70.7447 72.491 70.747 72.2717 70.747 72.127L71.139 72.33C70.789 72.3767 70.4087 72.4233 69.998 72.47C69.592 72.5167 69.1907 72.5703 68.794 72.631C68.402 72.6917 68.0474 72.764 67.73 72.848C67.5154 72.9087 67.3077 72.995 67.107 73.107C66.9064 73.2143 66.7407 73.359 66.61 73.541C66.484 73.723 66.421 73.9493 66.421 74.22C66.421 74.4393 66.4747 74.6517 66.582 74.857C66.694 75.0623 66.8714 75.2327 67.114 75.368C67.3614 75.5033 67.688 75.571 68.094 75.571ZM77.7073 76.25C77.2827 76.3387 76.8627 76.3737 76.4473 76.355C76.0367 76.3363 75.668 76.2477 75.3413 76.089C75.0193 75.9303 74.7743 75.683 74.6063 75.347C74.471 75.067 74.3963 74.7847 74.3823 74.5C74.373 74.2107 74.3683 73.8817 74.3683 73.513V66.59H75.3903V73.471C75.3903 73.7883 75.3927 74.0543 75.3973 74.269C75.4067 74.479 75.4557 74.6657 75.5443 74.829C75.7123 75.1417 75.9783 75.3283 76.3423 75.389C76.711 75.4497 77.166 75.4357 77.7073 75.347V76.25ZM72.7513 69.572V68.69H77.7073V69.572H72.7513ZM79.3368 67.255V66.1H80.3658V67.255H79.3368ZM79.3368 76.25V68.69H80.3658V76.25H79.3368ZM87.9244 76.25V72.393C87.9244 71.973 87.8847 71.588 87.8054 71.238C87.726 70.8833 87.5977 70.5753 87.4204 70.314C87.2477 70.048 87.0214 69.8427 86.7414 69.698C86.466 69.5533 86.13 69.481 85.7334 69.481C85.3694 69.481 85.0474 69.544 84.7674 69.67C84.492 69.796 84.2587 69.978 84.0674 70.216C83.8807 70.4493 83.7384 70.734 83.6404 71.07C83.5424 71.406 83.4934 71.7887 83.4934 72.218L82.7654 72.057C82.7654 71.2823 82.9007 70.6313 83.1714 70.104C83.442 69.5767 83.8154 69.1777 84.2914 68.907C84.7674 68.6363 85.3134 68.501 85.9294 68.501C86.382 68.501 86.7764 68.571 87.1124 68.711C87.453 68.851 87.74 69.04 87.9734 69.278C88.2114 69.516 88.4027 69.789 88.5474 70.097C88.692 70.4003 88.797 70.7247 88.8624 71.07C88.9277 71.4107 88.9604 71.7513 88.9604 72.092V76.25H87.9244ZM82.4574 76.25V68.69H83.3884V70.552H83.4934V76.25H82.4574ZM93.7799 79.82C93.3925 79.82 93.0099 79.7617 92.6319 79.645C92.2585 79.533 91.9132 79.3533 91.5959 79.106C91.2785 78.8633 91.0125 78.546 90.7979 78.154L91.7289 77.636C91.9389 78.056 92.2329 78.357 92.6109 78.539C92.9935 78.7257 93.3832 78.819 93.7799 78.819C94.3259 78.819 94.7669 78.7163 95.1029 78.511C95.4435 78.3103 95.6909 78.0117 95.8449 77.615C95.9989 77.2183 96.0735 76.7237 96.0689 76.131V74.115H96.1879V68.69H97.1049V76.145C97.1049 76.3597 97.0979 76.565 97.0839 76.761C97.0745 76.9617 97.0535 77.1577 97.0209 77.349C96.9322 77.9137 96.7479 78.378 96.4679 78.742C96.1925 79.106 95.8285 79.3767 95.3759 79.554C94.9279 79.7313 94.3959 79.82 93.7799 79.82ZM93.7099 76.46C93.0052 76.46 92.4032 76.285 91.9039 75.935C91.4045 75.5803 91.0219 75.102 90.7559 74.5C90.4899 73.898 90.3569 73.219 90.3569 72.463C90.3569 71.7117 90.4875 71.035 90.7489 70.433C91.0149 69.831 91.3952 69.355 91.8899 69.005C92.3845 68.655 92.9772 68.48 93.6679 68.48C94.3772 68.48 94.9745 68.6527 95.4599 68.998C95.9452 69.3433 96.3115 69.817 96.5589 70.419C96.8109 71.0163 96.9369 71.6977 96.9369 72.463C96.9369 73.2143 96.8132 73.8933 96.5659 74.5C96.3185 75.102 95.9545 75.5803 95.4739 75.935C94.9932 76.285 94.4052 76.46 93.7099 76.46ZM93.8149 75.501C94.3515 75.501 94.7949 75.3703 95.1449 75.109C95.4949 74.8477 95.7562 74.4883 95.9289 74.031C96.1015 73.569 96.1879 73.0463 96.1879 72.463C96.1879 71.8703 96.1015 71.3477 95.9289 70.895C95.7562 70.4377 95.4949 70.0807 95.1449 69.824C94.7995 69.5673 94.3632 69.439 93.8359 69.439C93.2945 69.439 92.8465 69.572 92.4919 69.838C92.1372 70.104 91.8735 70.4657 91.7009 70.923C91.5329 71.3803 91.4489 71.8937 91.4489 72.463C91.4489 73.037 91.5352 73.555 91.7079 74.017C91.8852 74.4743 92.1489 74.836 92.4989 75.102C92.8489 75.368 93.2875 75.501 93.8149 75.501ZM102.005 67.255V66.1H103.034V67.255H102.005ZM102.005 76.25V68.69H103.034V76.25H102.005ZM110.592 76.25V72.393C110.592 71.973 110.553 71.588 110.473 71.238C110.394 70.8833 110.266 70.5753 110.088 70.314C109.916 70.048 109.689 69.8427 109.409 69.698C109.134 69.5533 108.798 69.481 108.401 69.481C108.037 69.481 107.715 69.544 107.435 69.67C107.16 69.796 106.927 69.978 106.735 70.216C106.549 70.4493 106.406 70.734 106.308 71.07C106.21 71.406 106.161 71.7887 106.161 72.218L105.433 72.057C105.433 71.2823 105.569 70.6313 105.839 70.104C106.11 69.5767 106.483 69.1777 106.959 68.907C107.435 68.6363 107.981 68.501 108.597 68.501C109.05 68.501 109.444 68.571 109.78 68.711C110.121 68.851 110.408 69.04 110.641 69.278C110.879 69.516 111.071 69.789 111.215 70.097C111.36 70.4003 111.465 70.7247 111.53 71.07C111.596 71.4107 111.628 71.7513 111.628 72.092V76.25H110.592ZM105.125 76.25V68.69H106.056V70.552H106.161V76.25H105.125ZM118.411 76.25L115.499 66.17H116.57L118.929 74.493L121.274 66.177L122.352 66.17L124.711 74.493L127.056 66.17H128.134L125.229 76.25H124.193L121.813 67.983L119.447 76.25H118.411ZM127.661 76.25L131.133 66.17H132.498L135.97 76.25H134.899L131.602 66.744H132.008L128.732 76.25H127.661ZM129.208 73.807V72.841H134.416V73.807H129.208ZM137.234 76.25V66.17H141.126C141.691 66.17 142.183 66.2867 142.603 66.52C143.023 66.7533 143.35 67.0683 143.583 67.465C143.816 67.857 143.933 68.291 143.933 68.767C143.933 69.3083 143.788 69.7913 143.499 70.216C143.21 70.636 142.822 70.9277 142.337 71.091L142.323 70.748C142.976 70.9347 143.49 71.2613 143.863 71.728C144.236 72.1947 144.423 72.7593 144.423 73.422C144.423 74.0053 144.299 74.5093 144.052 74.934C143.805 75.354 143.457 75.6783 143.009 75.907C142.561 76.1357 142.041 76.25 141.448 76.25H137.234ZM138.27 75.263H141.196C141.607 75.263 141.975 75.1907 142.302 75.046C142.629 74.8967 142.885 74.6867 143.072 74.416C143.263 74.1453 143.359 73.8187 143.359 73.436C143.359 73.0627 143.273 72.7267 143.1 72.428C142.927 72.1293 142.692 71.8913 142.393 71.714C142.099 71.532 141.763 71.441 141.385 71.441H138.27V75.263ZM138.27 70.468H141.119C141.441 70.468 141.735 70.3957 142.001 70.251C142.267 70.1017 142.477 69.8987 142.631 69.642C142.79 69.3853 142.869 69.089 142.869 68.753C142.869 68.277 142.703 67.8897 142.372 67.591C142.045 67.2923 141.628 67.143 141.119 67.143H138.27V70.468ZM145.12 76.25L148.592 66.17H149.957L153.429 76.25H152.358L149.061 66.744H149.467L146.191 76.25H145.12ZM146.667 73.807V72.841H151.875V73.807H146.667ZM154.833 76.25V66.17H155.862V76.25H154.833ZM161.46 76.46C160.756 76.46 160.121 76.3433 159.556 76.11C158.996 75.872 158.532 75.536 158.163 75.102C157.799 74.668 157.561 74.1523 157.449 73.555L158.499 73.38C158.667 74.0333 159.022 74.5467 159.563 74.92C160.105 75.2887 160.751 75.473 161.502 75.473C161.997 75.473 162.44 75.396 162.832 75.242C163.224 75.0833 163.532 74.8593 163.756 74.57C163.98 74.2807 164.092 73.9377 164.092 73.541C164.092 73.2797 164.046 73.058 163.952 72.876C163.859 72.6893 163.735 72.5353 163.581 72.414C163.427 72.2927 163.259 72.1923 163.077 72.113C162.895 72.029 162.718 71.9613 162.545 71.91L159.99 71.147C159.682 71.0583 159.398 70.9463 159.136 70.811C158.875 70.671 158.646 70.5053 158.45 70.314C158.259 70.118 158.11 69.8893 158.002 69.628C157.895 69.3667 157.841 69.068 157.841 68.732C157.841 68.1627 157.991 67.6703 158.289 67.255C158.588 66.8397 158.996 66.52 159.514 66.296C160.032 66.072 160.623 65.9623 161.285 65.967C161.957 65.967 162.557 66.086 163.084 66.324C163.616 66.562 164.055 66.9027 164.4 67.346C164.746 67.7847 164.974 68.305 165.086 68.907L164.008 69.103C163.938 68.6643 163.777 68.284 163.525 67.962C163.273 67.64 162.951 67.3927 162.559 67.22C162.172 67.0427 161.745 66.9517 161.278 66.947C160.826 66.947 160.422 67.024 160.067 67.178C159.717 67.3273 159.44 67.5327 159.234 67.794C159.029 68.0553 158.926 68.354 158.926 68.69C158.926 69.0307 159.02 69.3037 159.206 69.509C159.398 69.7143 159.631 69.8753 159.906 69.992C160.186 70.1087 160.457 70.2043 160.718 70.279L162.692 70.86C162.898 70.916 163.138 70.9977 163.413 71.105C163.693 71.2077 163.964 71.357 164.225 71.553C164.491 71.7443 164.711 71.9963 164.883 72.309C165.056 72.6217 165.142 73.0183 165.142 73.499C165.142 73.9657 165.049 74.3833 164.862 74.752C164.68 75.1207 164.421 75.431 164.085 75.683C163.754 75.935 163.364 76.1263 162.916 76.257C162.473 76.3923 161.988 76.46 161.46 76.46Z" fill="white"/>
</g>
<defs>
<clipPath id="clip0_61_523">
<rect width="110" height="71" fill="white" transform="translate(56 10.25)"/>
</clipPath>
</defs>
</svg>
