<svg width="24" height="25" viewBox="0 0 24 25" fill="none" xmlns="http://www.w3.org/2000/svg">
<path d="M19.485 20.404L13.223 14.142C12.723 14.568 12.148 14.8977 11.498 15.131C10.848 15.3644 10.1947 15.481 9.538 15.481C7.93667 15.481 6.58133 14.9267 5.472 13.818C4.36267 12.7094 3.808 11.3544 3.808 9.75305C3.808 8.15171 4.362 6.79605 5.47 5.68605C6.578 4.57605 7.93267 4.02038 9.534 4.01905C11.1353 4.01771 12.4913 4.57238 13.602 5.68305C14.7127 6.79371 15.268 8.14938 15.268 9.75005C15.268 10.4447 15.145 11.117 14.899 11.767C14.653 12.417 14.3297 12.973 13.929 13.435L20.191 19.696L19.485 20.404ZM9.539 14.48C10.8657 14.48 11.9857 14.0234 12.899 13.11C13.8123 12.1967 14.269 11.0764 14.269 9.74904C14.269 8.42171 13.8123 7.30171 12.899 6.38905C11.9857 5.47638 10.8657 5.01971 9.539 5.01905C8.21233 5.01838 7.092 5.47505 6.178 6.38905C5.264 7.30305 4.80733 8.42305 4.808 9.74904C4.80867 11.075 5.26533 12.195 6.178 13.109C7.09067 14.023 8.21067 14.4797 9.538 14.479" fill="black"/>
</svg>
