<svg width="45" height="46" viewBox="0 0 45 46" fill="none" xmlns="http://www.w3.org/2000/svg">
<rect x="0.5" y="0.75" width="44" height="44" rx="22" stroke="#8A8A8A"/>
<path d="M32.056 17.947C31.9423 17.5235 31.7193 17.1374 31.4092 16.8273C31.0992 16.5173 30.713 16.2942 30.2895 16.1805C29.1325 15.7335 17.9235 15.5145 14.6715 16.193C14.2479 16.3067 13.8617 16.5299 13.5517 16.84C13.2416 17.1502 13.0186 17.5364 12.905 17.96C12.3825 20.2515 12.343 25.2055 12.918 27.5485C13.0317 27.972 13.2547 28.3582 13.5648 28.6683C13.8748 28.9783 14.261 29.2014 14.6845 29.315C16.976 29.8425 27.87 29.9165 30.3025 29.315C30.726 29.2014 31.1122 28.9783 31.4222 28.6683C31.7323 28.3582 31.9553 27.972 32.069 27.5485C32.626 25.052 32.6655 20.405 32.056 17.947Z" fill="#D9D9D9" stroke="white" stroke-width="0.5" stroke-linecap="round" stroke-linejoin="round"/>
<path d="M25.7835 22.7475L20.56 19.752V25.743L25.7835 22.7475Z" fill="black" stroke="black" stroke-width="0.5" stroke-linecap="round" stroke-linejoin="round"/>
</svg>
